PathFileType	4	(X/Y/Z)	D:\TRACE\spot_10-12-23\spot_arm_body_motion_1_4-platform.trc
DataRate	CameraRate	NumFrames	NumMarkers	Units	OrigDataRate	OrigDataStartFrame	OrigNumFrames
100.00	100.00	      55	5	mm	100.00	876	      7000
Frame#	Time	Left_Front			Right_Front			Left_Aft			Right_Aft			Post			
		X1	Y1	Z1	X2	Y2	Z2	X3	Y3	Z3	X4	Y4	Z4	X5	Y5	Z5	

876	8.750	-734.02844	-5.98131	-655.01685	833.30719	-7.24017	-630.22784	-662.93091	21.73745	483.28683	747.00061	23.77056	583.57874	68.11187	718.83679	-982.23962	
877	8.760	-734.14355	-6.22134	-655.19128	833.05017	-7.54163	-630.30334	-663.11884	22.05133	483.11685	746.87878	24.06759	583.51245	67.71332	718.22113	-983.38110	
878	8.770	-734.64862	-6.34160	-655.22461	832.74048	-7.78518	-630.39203	-663.36755	22.48127	482.95914	746.61456	24.36445	583.36255	69.22386	718.08765	-982.58069	
879	8.780	-735.01819	-6.58715	-655.26440	832.34302	-8.04109	-630.48425	-663.68811	22.74526	482.91214	746.29144	24.65888	583.20404	67.23908	717.24341	-984.34045	
880	8.790	-735.49249	-7.17057	-655.43262	831.92645	-8.39400	-630.62384	-664.06506	22.84565	482.89493	745.96326	24.84933	583.11383	66.53288	716.74121	-985.33228	
881	8.800	-735.92188	-7.58544	-655.49738	831.61011	-8.78417	-630.71130	-664.40375	22.94493	482.81897	745.53192	25.05061	583.01880	66.57002	716.15076	-985.50800	
882	8.810	-735.82343	-8.12534	-655.77002	831.20673	-9.08502	-630.84351	-664.74884	23.16486	482.68307	745.10931	25.38976	583.00293	66.28838	715.69122	-986.27930	
883	8.820	-736.41370	-8.13994	-655.54230	830.96582	-9.54471	-630.90729	-665.06165	23.49468	482.53128	744.68280	25.64097	582.95447	65.95096	715.22156	-986.83905	
884	8.830	-736.87225	-8.48114	-655.64276	830.58759	-9.91154	-630.91888	-665.41980	23.89755	482.50601	744.39771	25.88484	582.87122	65.31951	714.60919	-987.64709	
885	8.840	-737.29999	-8.91629	-655.72223	830.13983	-10.14122	-630.97717	-666.01434	24.11251	482.45969	743.97491	26.14560	582.79938	65.70798	714.20911	-987.02460	
886	8.850	-737.54480	-9.31672	-655.96259	829.64233	-10.47226	-631.12720	-666.50159	24.31727	482.31262	743.47156	26.31438	582.69647	64.76849	713.70276	-987.64075	
887	8.860	-738.13940	-9.34994	-655.84180	829.09454	-10.79705	-631.16980	-667.03656	24.31311	482.24719	742.94281	26.53072	582.64844	64.24128	713.41174	-987.85541	
888	8.870	-738.59644	-9.55480	-655.86511	828.70844	-11.14439	-631.18744	-667.40894	24.48402	482.15656	742.51385	26.68592	582.50616	63.72538	713.13550	-988.13995	
889	8.880	-739.15454	-9.67727	-655.93488	828.38177	-11.27659	-631.16730	-667.73102	24.71440	482.10779	742.02875	26.98841	582.39178	62.82076	712.68762	-988.80286	
890	8.890	-739.82965	-9.86989	-656.02917	827.87921	-11.39814	-631.09393	-668.11194	24.80244	482.03241	741.64746	27.17036	582.30719	62.57571	712.33807	-988.88989	
891	8.900	-740.37054	-10.11389	-656.02820	827.35211	-11.73703	-631.17090	-668.61023	24.92312	481.93515	741.23712	27.26703	582.27051	62.05435	711.98138	-989.05811	
892	8.910	-740.73999	-10.39961	-656.00470	826.83588	-12.03089	-631.34576	-669.22137	25.03350	481.90179	740.67517	27.49128	582.18530	61.55832	711.58655	-989.13531	
893	8.920	-741.13757	-10.88448	-656.09760	826.26257	-12.35297	-631.38000	-669.71094	25.33759	481.85101	740.08691	27.71669	582.07733	61.30157	711.35675	-988.82703	
894	8.930	-741.58319	-11.22147	-656.09784	825.78931	-12.47110	-631.40125	-670.22705	25.61248	481.74884	739.59991	27.96849	582.01898	60.71952	710.94067	-989.41730	
895	8.940	-741.89386	-11.60385	-656.32776	825.28741	-12.72080	-631.59302	-670.52448	25.79637	481.63586	739.13586	28.20531	581.95868	59.92015	710.52209	-990.24445	
896	8.950	-742.73016	-11.67413	-656.25366	824.64734	-13.13680	-631.73553	-671.39587	25.92161	481.50809	738.69293	28.14173	581.66461	59.36694	709.98956	-990.72296	
897	8.960	-743.33612	-11.90470	-656.47455	824.04224	-13.45006	-631.76312	-672.12329	26.01681	481.45975	738.03918	28.40270	581.61646	59.03318	709.61078	-991.06952	
898	8.970	-744.02643	-12.18915	-656.57184	823.57520	-13.68086	-631.75287	-672.62091	26.17939	481.39777	737.40771	28.64979	581.56488	58.34455	709.10712	-991.48871	
899	8.980	-744.51489	-12.47297	-656.64630	823.04175	-13.81920	-631.80402	-672.99237	26.35168	481.47235	736.95636	28.87690	581.57959	58.03055	708.84485	-991.65552	
900	8.990	-745.06757	-12.53684	-656.56219	822.28998	-14.34129	-631.82507	-673.68671	26.59859	481.41275	736.45044	29.11095	581.48273	57.38573	708.39795	-992.16559	
901	9.000	-745.63342	-12.77846	-656.63953	821.75562	-14.34350	-631.88165	-674.58142	26.89835	481.23599	735.68359	29.28672	581.36597	56.52193	708.01361	-992.95593	
902	9.010	-746.35626	-13.13963	-656.66992	821.09454	-14.59954	-631.86237	-675.01123	26.93073	481.09949	734.99243	29.40011	581.32007	55.65763	707.76147	-993.44232	
903	9.020	-747.12036	-13.29420	-656.77411	820.48999	-14.82985	-631.90875	-675.57227	27.00955	481.05157	734.29474	29.49694	581.30139	55.05060	707.50085	-993.72589	
904	9.030	-747.89087	-13.26912	-656.87927	819.84961	-14.96983	-632.01929	-676.32062	27.08504	480.97696	733.74426	29.72411	581.27930	54.50629	707.19739	-993.94397	
905	9.040	-748.31067	-13.51206	-656.84277	819.17932	-15.07619	-632.14783	-676.99561	27.22461	480.89471	733.16870	29.90385	581.19238	53.92842	706.82355	-994.10083	
906	9.050	-748.97833	-13.76116	-656.88800	818.50604	-15.21216	-632.23175	-677.34412	27.33061	480.88992	732.46075	30.10225	581.13641	53.58372	706.47473	-993.81897	
907	9.060	-749.56714	-14.09760	-656.85364	817.74023	-15.55862	-632.17041	-678.13373	27.42931	480.85648	731.73047	30.09060	581.02435	52.36414	706.30713	-994.26532	
908	9.070	-750.26373	-14.32555	-656.92847	816.95392	-15.78587	-632.19116	-679.09637	27.54490	480.72617	730.93274	30.21098	580.96527	51.92663	706.02734	-993.88501	
909	9.080	-751.10101	-14.39020	-657.10168	816.21674	-15.88122	-632.17627	-679.81476	27.77781	480.67752	730.20520	30.30798	580.94293	51.33318	705.74341	-993.87726	
910	9.090	-751.82886	-14.44450	-657.12787	815.69354	-16.00804	-632.21973	-680.40979	27.93968	480.62537	729.50262	30.50449	580.82715	50.66396	705.62317	-994.08282	
911	9.100	-752.64850	-14.60325	-657.07623	815.03735	-16.11052	-632.23633	-681.19757	28.04908	480.60770	728.95874	30.74447	580.76025	50.02774	705.47260	-994.30139	
912	9.110	-753.18738	-14.94664	-657.01288	814.15509	-16.37403	-632.36005	-681.85156	28.07696	480.55072	728.24927	30.83162	580.75397	48.98130	705.25104	-994.87201	
913	9.120	-753.85095	-15.18547	-657.07947	813.34503	-16.45046	-632.43237	-682.49078	28.17266	480.55124	727.50470	30.96500	580.82104	48.40536	704.84314	-994.81604	
914	9.130	-754.71582	-15.20569	-657.24445	812.54822	-16.62981	-632.50708	-683.54102	28.35357	480.42905	726.63843	31.09702	580.82623	47.77531	704.62970	-995.06567	
915	9.140	-755.69513	-15.17188	-657.28815	811.75189	-16.76527	-632.48468	-684.24969	28.38552	480.37662	725.85724	31.28304	580.81409	47.04236	704.49231	-995.45923	
916	9.150	-756.49585	-15.25657	-657.18372	811.12250	-16.90321	-632.46686	-684.79675	28.50904	480.31644	725.18079	31.34653	580.71478	46.16840	704.30127	-995.89014	
917	9.160	-757.04797	-15.49201	-657.25928	810.38440	-16.98116	-632.51569	-685.80609	28.65399	480.23981	724.37646	31.45161	580.60480	45.41054	704.08185	-996.08240	
918	9.170	-757.75696	-15.73563	-657.31012	809.50708	-17.03605	-632.53369	-686.67010	28.73031	480.27399	723.41833	31.48127	580.58453	44.35916	703.74280	-996.47314	
919	9.180	-758.67834	-15.76924	-657.41022	808.58105	-17.41382	-632.60406	-687.31732	28.76410	480.26672	722.64069	31.51349	580.51379	43.46963	703.62592	-996.58142	
920	9.190	-759.75226	-15.77452	-657.47644	807.66998	-17.53483	-632.60669	-688.23761	28.80157	480.22958	721.75562	31.56765	580.42664	42.14160	703.61353	-996.46411	
921	9.200	-760.46436	-15.79581	-657.39691	806.95520	-17.32833	-632.67957	-689.02393	28.90043	480.17923	720.97925	31.71026	580.43097	41.15555	703.62170	-997.09833	
922	9.210	-761.13165	-15.91753	-657.43799	806.13770	-17.47484	-632.79456	-689.82080	29.08538	480.15363	720.09192	31.88040	580.34326	41.03688	703.57318	-996.76416	
923	9.220	-761.99011	-16.03874	-657.45935	805.28827	-17.59644	-632.76868	-690.67511	28.98575	480.16769	719.48029	31.86230	580.38263	40.34884	703.28711	-996.64557	
924	9.230	-763.00415	-16.12108	-657.60162	804.43677	-17.73775	-632.72614	-691.44446	28.93529	480.15796	718.56610	31.83259	580.39917	39.42387	703.13531	-996.51550	
925	9.240	-763.87396	-16.12648	-657.48547	803.61914	-17.74025	-632.71033	-692.22876	28.94673	480.15317	717.52606	31.90267	580.38196	38.32413	703.03088	-996.77289	
926	9.250	-764.69885	-16.04811	-657.45105	802.80322	-17.62194	-632.73682	-693.59149	28.92263	480.19080	716.82166	32.01983	580.33203	37.84787	703.10175	-996.60864	
927	9.260	-765.51715	-16.14773	-657.56085	801.90369	-17.76373	-632.87628	-694.04895	29.14805	480.06992	715.83990	31.95912	580.31799	37.23085	703.09491	-996.77991	
928	9.270	-766.43372	-16.18190	-657.68823	801.05151	-17.71313	-632.83197	-695.09662	29.16678	479.99170	714.99646	31.97166	580.26807	35.81759	702.99237	-997.04901	
929	9.280	-767.58057	-16.07333	-657.59137	800.01355	-17.83930	-632.84015	-696.01532	29.20007	480.05688	714.23352	31.99439	580.25214	34.72900	703.00177	-997.11633	
930	9.290	-768.28656	-16.15269	-657.57898	799.01025	-17.87652	-632.83319	-696.63916	29.18594	480.04929	713.07959	32.02311	580.24628	33.89641	702.93140	-997.28662	
